# xmcd
#
# Track frame offsets:
#	150
#	13675
#	34012
#	50392
#	64857
#	83612
#	95527
#	111022
#	113825
#	129585
#	144092
#	160057
#	174325
#	185310
#	199770
#
# Disc length: 2862 seconds
#
# Revision: 6
# Processed by: cddbd v1.5.2PL0 Copyright (c) Steve Scherf et al.
# Submitted via: audiograbber 1.83.01
#
DISCID=b90b2c0f
DTITLE=John Williamson - Waratah St.
DYEAR=1991
DGENRE=Country
TTITLE0=Songs For My Guitar
TTITLE1=Tubbo Station
TTITLE2=Winter Green
TTITLE3=Waratah Street
TTITLE4=A Bushman Can't Survive
TTITLE5=Wobbly Boot Hotel (Boggabilla Pub)
TTITLE6=Goondiwindi Pork
TTITLE7=Will Our Grandchildren Sing
TTITLE8=A Flag Of Our Own
TTITLE9=The Big Depression
TTITLE10=Ami, Take Your Chances!
TTITLE11=Georgie
TTITLE12=Beachcomber From Wollongong
TTITLE13=Millions Of Women
TTITLE14=Papa Whisky November
EXTD=YEAR: 1991
EXTT0=
EXTT1=
EXTT2=
EXTT3=
EXTT4=
EXTT5=
EXTT6=
EXTT7=
EXTT8=
EXTT9=
EXTT10=
EXTT11=
EXTT12=
EXTT13=
EXTT14=
PLAYORDER=
